{
    "asset" : {
        "generator" : "Khronos glTF Blender I/O v1.8.19",
        "version" : "2.0"
    },
    "scene" : 0,
    "scenes" : [
        {
            "name" : "Scene",
            "nodes" : [
                0,
                1,
                2
            ]
        }
    ],
    "nodes" : [
        {
            "mesh" : 0,
            "name" : "BoxScene",
            "translation" : [
                0,
                9.14851188659668,
                0
            ]
        },
        {
            "mesh" : 1,
            "name" : "Cylinder",
            "translation" : [
                0,
                4.526263236999512,
                0
            ]
        },
        {
            "mesh" : 2,
            "name" : "Cylinder.001",
            "translation" : [
                0,
                3,
                0
            ]
        }
    ],
    "materials" : [
        {
            "doubleSided" : true,
            "name" : "Material.001",
            "pbrMetallicRoughness" : {
                "baseColorFactor" : [
                    0.0084562748670578,
                    0.8000000715255737,
                    0.22199122607707977,
                    1
                ],
                "metallicFactor" : 0,
                "roughnessFactor" : 0.5
            }
        },
        {
            "doubleSided" : true,
            "name" : "Material.008",
            "pbrMetallicRoughness" : {
                "baseColorFactor" : [
                    0.054480016231536865,
                    0,
                    0.4286903142929077,
                    1
                ],
                "metallicFactor" : 0,
                "roughnessFactor" : 0.5
            }
        },
        {
            "alphaMode" : "BLEND",
            "doubleSided" : true,
            "name" : "Material.010",
            "pbrMetallicRoughness" : {
                "baseColorFactor" : [
                    0.054480016231536865,
                    0,
                    0.4286903142929077,
                    0
                ],
                "metallicFactor" : 0,
                "roughnessFactor" : 0
            }
        },
        {
            "doubleSided" : true,
            "name" : "Material.011",
            "pbrMetallicRoughness" : {
                "baseColorFactor" : [
                    0.3177838921546936,
                    0.02536703273653984,
                    1,
                    1
                ],
                "metallicFactor" : 0,
                "roughnessFactor" : 0.5
            }
        }
    ],
    "meshes" : [
        {
            "name" : "Plane",
            "primitives" : [
                {
                    "attributes" : {
                        "POSITION" : 0,
                        "NORMAL" : 1,
                        "TEXCOORD_0" : 2
                    },
                    "indices" : 3,
                    "material" : 0
                }
            ]
        },
        {
            "name" : "Cylinder",
            "primitives" : [
                {
                    "attributes" : {
                        "POSITION" : 4,
                        "NORMAL" : 5,
                        "TEXCOORD_0" : 6
                    },
                    "indices" : 7,
                    "material" : 1
                },
                {
                    "attributes" : {
                        "POSITION" : 8,
                        "NORMAL" : 9,
                        "TEXCOORD_0" : 10
                    },
                    "indices" : 11,
                    "material" : 2
                }
            ]
        },
        {
            "name" : "Cylinder.001",
            "primitives" : [
                {
                    "attributes" : {
                        "POSITION" : 12,
                        "NORMAL" : 13,
                        "TEXCOORD_0" : 14
                    },
                    "indices" : 15,
                    "material" : 3
                }
            ]
        }
    ],
    "accessors" : [
        {
            "bufferView" : 0,
            "componentType" : 5126,
            "count" : 20,
            "max" : [
                13.937711715698242,
                19.15933609008789,
                14.473012924194336
            ],
            "min" : [
                -13.937711715698242,
                -19.15933609008789,
                -14.473012924194336
            ],
            "type" : "VEC3"
        },
        {
            "bufferView" : 1,
            "componentType" : 5126,
            "count" : 20,
            "type" : "VEC3"
        },
        {
            "bufferView" : 2,
            "componentType" : 5126,
            "count" : 20,
            "type" : "VEC2"
        },
        {
            "bufferView" : 3,
            "componentType" : 5123,
            "count" : 30,
            "type" : "SCALAR"
        },
        {
            "bufferView" : 4,
            "componentType" : 5126,
            "count" : 84,
            "max" : [
                6.1414337158203125,
                12.461933135986328,
                6.1414337158203125
            ],
            "min" : [
                -6.1414337158203125,
                -5.824076175689697,
                -6.1414337158203125
            ],
            "type" : "VEC3"
        },
        {
            "bufferView" : 5,
            "componentType" : 5126,
            "count" : 84,
            "type" : "VEC3"
        },
        {
            "bufferView" : 6,
            "componentType" : 5126,
            "count" : 84,
            "type" : "VEC2"
        },
        {
            "bufferView" : 7,
            "componentType" : 5123,
            "count" : 144,
            "type" : "SCALAR"
        },
        {
            "bufferView" : 8,
            "componentType" : 5126,
            "count" : 8,
            "max" : [
                6.1414337158203125,
                11.592370986938477,
                6.1414337158203125
            ],
            "min" : [
                -6.1414337158203125,
                -5.824076175689697,
                5.490549564361572
            ],
            "type" : "VEC3"
        },
        {
            "bufferView" : 9,
            "componentType" : 5126,
            "count" : 8,
            "type" : "VEC3"
        },
        {
            "bufferView" : 10,
            "componentType" : 5126,
            "count" : 8,
            "type" : "VEC2"
        },
        {
            "bufferView" : 11,
            "componentType" : 5123,
            "count" : 12,
            "type" : "SCALAR"
        },
        {
            "bufferView" : 12,
            "componentType" : 5126,
            "count" : 56,
            "max" : [
                5.396661281585693,
                7.327119827270508,
                5.396661281585693
            ],
            "min" : [
                -5.396661281585693,
                0,
                -5.396661281585693
            ],
            "type" : "VEC3"
        },
        {
            "bufferView" : 13,
            "componentType" : 5126,
            "count" : 56,
            "type" : "VEC3"
        },
        {
            "bufferView" : 14,
            "componentType" : 5126,
            "count" : 56,
            "type" : "VEC2"
        },
        {
            "bufferView" : 15,
            "componentType" : 5123,
            "count" : 84,
            "type" : "SCALAR"
        }
    ],
    "bufferViews" : [
        {
            "buffer" : 0,
            "byteLength" : 240,
            "byteOffset" : 0
        },
        {
            "buffer" : 0,
            "byteLength" : 240,
            "byteOffset" : 240
        },
        {
            "buffer" : 0,
            "byteLength" : 160,
            "byteOffset" : 480
        },
        {
            "buffer" : 0,
            "byteLength" : 60,
            "byteOffset" : 640
        },
        {
            "buffer" : 0,
            "byteLength" : 1008,
            "byteOffset" : 700
        },
        {
            "buffer" : 0,
            "byteLength" : 1008,
            "byteOffset" : 1708
        },
        {
            "buffer" : 0,
            "byteLength" : 672,
            "byteOffset" : 2716
        },
        {
            "buffer" : 0,
            "byteLength" : 288,
            "byteOffset" : 3388
        },
        {
            "buffer" : 0,
            "byteLength" : 96,
            "byteOffset" : 3676
        },
        {
            "buffer" : 0,
            "byteLength" : 96,
            "byteOffset" : 3772
        },
        {
            "buffer" : 0,
            "byteLength" : 64,
            "byteOffset" : 3868
        },
        {
            "buffer" : 0,
            "byteLength" : 24,
            "byteOffset" : 3932
        },
        {
            "buffer" : 0,
            "byteLength" : 672,
            "byteOffset" : 3956
        },
        {
            "buffer" : 0,
            "byteLength" : 672,
            "byteOffset" : 4628
        },
        {
            "buffer" : 0,
            "byteLength" : 448,
            "byteOffset" : 5300
        },
        {
            "buffer" : 0,
            "byteLength" : 168,
            "byteOffset" : 5748
        }
    ],
    "buffers" : [
        {
            "byteLength" : 5916,
            "uri" : "carnotBox.bin"
        }
    ]
}
