{
    "asset" : {
        "generator" : "Khronos glTF Blender I/O v1.8.19",
        "version" : "2.0"
    },
    "scene" : 0,
    "scenes" : [
        {
            "name" : "Scene",
            "nodes" : [
                1,
                2,
                5,
                6
            ]
        }
    ],
    "nodes" : [
        {
            "mesh" : 0,
            "name" : "Lamp",
            "rotation" : [
                0,
                0,
                -0.7071068286895752,
                0.7071068286895752
            ],
            "scale" : [
                1.4443650245666504,
                1.4443650245666504,
                1.4443650245666504
            ],
            "translation" : [
                8.285380363464355,
                2.6006009578704834,
                -1.002996563911438
            ]
        },
        {
            "children" : [
                0
            ],
            "mesh" : 1,
            "name" : "Coil",
            "rotation" : [
                0.7071068286895752,
                0,
                0,
                0.7071068286895752
            ],
            "scale" : [
                0.6923459768295288,
                0.6923459768295288,
                0.6923459768295288
            ],
            "translation" : [
                0.3636144995689392,
                7.960416316986084,
                0.12849976122379303
            ]
        },
        {
            "name" : "Empty",
            "rotation" : [
                0.5000000596046448,
                -0.4999999701976776,
                -0.4999999403953552,
                0.5000000596046448
            ],
            "scale" : [
                1.7589528560638428,
                1.7589528560638428,
                1.7589528560638428
            ],
            "translation" : [
                9.284477233886719,
                7.35582160949707,
                0
            ]
        },
        {
            "mesh" : 2,
            "name" : "TextN",
            "rotation" : [
                0.7071068286895752,
                0,
                0,
                0.7071067094802856
            ],
            "scale" : [
                1,
                2.0398247241973877,
                0.35959699749946594
            ],
            "translation" : [
                -0.37553566694259644,
                0.616243839263916,
                1.1251567602157593
            ]
        },
        {
            "mesh" : 3,
            "name" : "TextS",
            "rotation" : [
                0,
                0.7071068286895752,
                0.7071067094802856,
                3.2036507491284283e-07
            ],
            "scale" : [
                1.1815654039382935,
                2.410186290740967,
                0.42488735914230347
            ],
            "translation" : [
                0.2543915808200836,
                -0.5189790725708008,
                1.1251568794250488
            ]
        },
        {
            "children" : [
                3,
                4
            ],
            "mesh" : 4,
            "name" : "Magnet",
            "scale" : [
                1.5266672372817993,
                4.245495319366455,
                0.748430609703064
            ],
            "translation" : [
                0,
                21.50105094909668,
                0
            ]
        },
        {
            "mesh" : 5,
            "name" : "BoxScene",
            "scale" : [
                12.564814567565918,
                15.724967002868652,
                12.4039945602417
            ],
            "translation" : [
                4.029323577880859,
                11.709033012390137,
                0
            ]
        }
    ],
    "materials" : [
        {
            "doubleSided" : true,
            "name" : "Material.002",
            "pbrMetallicRoughness" : {
                "baseColorFactor" : [
                    0.12149008363485336,
                    0.8000000715255737,
                    0.19010590016841888,
                    1
                ],
                "metallicFactor" : 0,
                "roughnessFactor" : 0.5
            }
        },
        {
            "doubleSided" : true,
            "name" : "Material.003",
            "pbrMetallicRoughness" : {
                "metallicFactor" : 0,
                "roughnessFactor" : 0.5
            }
        },
        {
            "doubleSided" : true,
            "name" : "Material.004",
            "pbrMetallicRoughness" : {
                "baseColorFactor" : [
                    1,
                    0.8852792978286743,
                    0.3310409188270569,
                    1
                ],
                "metallicFactor" : 0,
                "roughnessFactor" : 0.5
            }
        },
        {
            "doubleSided" : true,
            "name" : "Material.001",
            "pbrMetallicRoughness" : {
                "baseColorFactor" : [
                    0.8000000715255737,
                    0.261955201625824,
                    0,
                    1
                ],
                "metallicFactor" : 0,
                "roughnessFactor" : 0.5
            }
        },
        {
            "doubleSided" : true,
            "name" : "Material.007",
            "pbrMetallicRoughness" : {
                "metallicFactor" : 0,
                "roughnessFactor" : 0.5
            }
        },
        {
            "doubleSided" : true,
            "name" : "Material.005",
            "pbrMetallicRoughness" : {
                "baseColorFactor" : [
                    0.013539103791117668,
                    0.01095245685428381,
                    0.8000000715255737,
                    1
                ],
                "metallicFactor" : 0,
                "roughnessFactor" : 0.5
            }
        },
        {
            "doubleSided" : true,
            "name" : "Material.006",
            "pbrMetallicRoughness" : {
                "baseColorFactor" : [
                    0.8000000715255737,
                    0.010853191837668419,
                    0.004799007438123226,
                    1
                ],
                "metallicFactor" : 0,
                "roughnessFactor" : 0.5
            }
        },
        {
            "doubleSided" : true,
            "name" : "Material",
            "pbrMetallicRoughness" : {
                "baseColorFactor" : [
                    0.3366982042789459,
                    0.40877866744995117,
                    0.8000000715255737,
                    1
                ],
                "metallicFactor" : 0,
                "roughnessFactor" : 0.5
            }
        }
    ],
    "meshes" : [
        {
            "name" : "Cylinder.001",
            "primitives" : [
                {
                    "attributes" : {
                        "POSITION" : 0,
                        "NORMAL" : 1,
                        "TEXCOORD_0" : 2
                    },
                    "indices" : 3,
                    "material" : 0
                },
                {
                    "attributes" : {
                        "POSITION" : 4,
                        "NORMAL" : 5,
                        "TEXCOORD_0" : 6
                    },
                    "indices" : 7,
                    "material" : 1
                },
                {
                    "attributes" : {
                        "POSITION" : 8,
                        "NORMAL" : 9,
                        "TEXCOORD_0" : 10
                    },
                    "indices" : 11,
                    "material" : 2
                }
            ]
        },
        {
            "name" : "BezierCircle",
            "primitives" : [
                {
                    "attributes" : {
                        "POSITION" : 12,
                        "NORMAL" : 13,
                        "TEXCOORD_0" : 14
                    },
                    "indices" : 15,
                    "material" : 3
                }
            ]
        },
        {
            "name" : "Text",
            "primitives" : [
                {
                    "attributes" : {
                        "POSITION" : 16,
                        "NORMAL" : 17,
                        "TEXCOORD_0" : 18
                    },
                    "indices" : 19,
                    "material" : 4
                }
            ]
        },
        {
            "name" : "Text.001",
            "primitives" : [
                {
                    "attributes" : {
                        "POSITION" : 20,
                        "NORMAL" : 21,
                        "TEXCOORD_0" : 22
                    },
                    "indices" : 23,
                    "material" : 4
                }
            ]
        },
        {
            "name" : "Cube",
            "primitives" : [
                {
                    "attributes" : {
                        "POSITION" : 24,
                        "NORMAL" : 25,
                        "TEXCOORD_0" : 26
                    },
                    "indices" : 27,
                    "material" : 5
                },
                {
                    "attributes" : {
                        "POSITION" : 28,
                        "NORMAL" : 29,
                        "TEXCOORD_0" : 30
                    },
                    "indices" : 31,
                    "material" : 6
                }
            ]
        },
        {
            "name" : "Plane",
            "primitives" : [
                {
                    "attributes" : {
                        "POSITION" : 32,
                        "NORMAL" : 33,
                        "TEXCOORD_0" : 34
                    },
                    "indices" : 35,
                    "material" : 7
                }
            ]
        }
    ],
    "accessors" : [
        {
            "bufferView" : 0,
            "componentType" : 5126,
            "count" : 84,
            "max" : [
                1,
                1.1556501388549805,
                1
            ],
            "min" : [
                -1,
                -1,
                -1
            ],
            "type" : "VEC3"
        },
        {
            "bufferView" : 1,
            "componentType" : 5126,
            "count" : 84,
            "type" : "VEC3"
        },
        {
            "bufferView" : 2,
            "componentType" : 5126,
            "count" : 84,
            "type" : "VEC2"
        },
        {
            "bufferView" : 3,
            "componentType" : 5123,
            "count" : 330,
            "type" : "SCALAR"
        },
        {
            "bufferView" : 4,
            "componentType" : 5126,
            "count" : 102,
            "max" : [
                1.740126371383667,
                3.7344353199005127,
                1.7401260137557983
            ],
            "min" : [
                -1.7401258945465088,
                1.1556501388549805,
                -1.740126371383667
            ],
            "type" : "VEC3"
        },
        {
            "bufferView" : 5,
            "componentType" : 5126,
            "count" : 102,
            "type" : "VEC3"
        },
        {
            "bufferView" : 6,
            "componentType" : 5126,
            "count" : 102,
            "type" : "VEC2"
        },
        {
            "bufferView" : 7,
            "componentType" : 5123,
            "count" : 480,
            "type" : "SCALAR"
        },
        {
            "bufferView" : 8,
            "componentType" : 5126,
            "count" : 103,
            "max" : [
                1.740126371383667,
                5.830428123474121,
                1.7401260137557983
            ],
            "min" : [
                -1.7401258945465088,
                3.7344353199005127,
                -1.740126371383667
            ],
            "type" : "VEC3"
        },
        {
            "bufferView" : 9,
            "componentType" : 5126,
            "count" : 103,
            "type" : "VEC3"
        },
        {
            "bufferView" : 10,
            "componentType" : 5126,
            "count" : 103,
            "type" : "VEC2"
        },
        {
            "bufferView" : 11,
            "componentType" : 5123,
            "count" : 528,
            "type" : "SCALAR"
        },
        {
            "bufferView" : 12,
            "componentType" : 5126,
            "count" : 11600,
            "max" : [
                8.452878952026367,
                4.792560577392578,
                10.768508911132812
            ],
            "min" : [
                -5.503352642059326,
                -5.163761138916016,
                -10.944270133972168
            ],
            "type" : "VEC3"
        },
        {
            "bufferView" : 13,
            "componentType" : 5126,
            "count" : 11600,
            "type" : "VEC3"
        },
        {
            "bufferView" : 14,
            "componentType" : 5126,
            "count" : 11600,
            "type" : "VEC2"
        },
        {
            "bufferView" : 15,
            "componentType" : 5123,
            "count" : 54432,
            "type" : "SCALAR"
        },
        {
            "bufferView" : 16,
            "componentType" : 5126,
            "count" : 58,
            "max" : [
                0.706000030040741,
                0.05999999865889549,
                0
            ],
            "min" : [
                0.07400000095367432,
                -0.05999999865889549,
                -0.6820000410079956
            ],
            "type" : "VEC3"
        },
        {
            "bufferView" : 17,
            "componentType" : 5126,
            "count" : 58,
            "type" : "VEC3"
        },
        {
            "bufferView" : 18,
            "componentType" : 5126,
            "count" : 58,
            "type" : "VEC2"
        },
        {
            "bufferView" : 19,
            "componentType" : 5123,
            "count" : 108,
            "type" : "SCALAR"
        },
        {
            "bufferView" : 20,
            "componentType" : 5126,
            "count" : 800,
            "max" : [
                0.42600002884864807,
                0.05999999865889549,
                0.009000000543892384
            ],
            "min" : [
                0.04000000283122063,
                -0.05999999865889549,
                -0.6910000443458557
            ],
            "type" : "VEC3"
        },
        {
            "bufferView" : 21,
            "componentType" : 5126,
            "count" : 800,
            "type" : "VEC3"
        },
        {
            "bufferView" : 22,
            "componentType" : 5126,
            "count" : 800,
            "type" : "VEC2"
        },
        {
            "bufferView" : 23,
            "componentType" : 5123,
            "count" : 1452,
            "type" : "SCALAR"
        },
        {
            "bufferView" : 24,
            "componentType" : 5126,
            "count" : 20,
            "max" : [
                1,
                1,
                1
            ],
            "min" : [
                -1,
                0,
                -1
            ],
            "type" : "VEC3"
        },
        {
            "bufferView" : 25,
            "componentType" : 5126,
            "count" : 20,
            "type" : "VEC3"
        },
        {
            "bufferView" : 26,
            "componentType" : 5126,
            "count" : 20,
            "type" : "VEC2"
        },
        {
            "bufferView" : 27,
            "componentType" : 5123,
            "count" : 30,
            "type" : "SCALAR"
        },
        {
            "bufferView" : 28,
            "componentType" : 5126,
            "count" : 20,
            "max" : [
                1,
                0,
                1
            ],
            "min" : [
                -1,
                -1,
                -1
            ],
            "type" : "VEC3"
        },
        {
            "bufferView" : 29,
            "componentType" : 5126,
            "count" : 20,
            "type" : "VEC3"
        },
        {
            "bufferView" : 30,
            "componentType" : 5126,
            "count" : 20,
            "type" : "VEC2"
        },
        {
            "bufferView" : 31,
            "componentType" : 5123,
            "count" : 30,
            "type" : "SCALAR"
        },
        {
            "bufferView" : 32,
            "componentType" : 5126,
            "count" : 20,
            "max" : [
                1,
                1.3189048767089844,
                1
            ],
            "min" : [
                -1,
                -1.3189048767089844,
                -1
            ],
            "type" : "VEC3"
        },
        {
            "bufferView" : 33,
            "componentType" : 5126,
            "count" : 20,
            "type" : "VEC3"
        },
        {
            "bufferView" : 34,
            "componentType" : 5126,
            "count" : 20,
            "type" : "VEC2"
        },
        {
            "bufferView" : 35,
            "componentType" : 5123,
            "count" : 30,
            "type" : "SCALAR"
        }
    ],
    "bufferViews" : [
        {
            "buffer" : 0,
            "byteLength" : 1008,
            "byteOffset" : 0
        },
        {
            "buffer" : 0,
            "byteLength" : 1008,
            "byteOffset" : 1008
        },
        {
            "buffer" : 0,
            "byteLength" : 672,
            "byteOffset" : 2016
        },
        {
            "buffer" : 0,
            "byteLength" : 660,
            "byteOffset" : 2688
        },
        {
            "buffer" : 0,
            "byteLength" : 1224,
            "byteOffset" : 3348
        },
        {
            "buffer" : 0,
            "byteLength" : 1224,
            "byteOffset" : 4572
        },
        {
            "buffer" : 0,
            "byteLength" : 816,
            "byteOffset" : 5796
        },
        {
            "buffer" : 0,
            "byteLength" : 960,
            "byteOffset" : 6612
        },
        {
            "buffer" : 0,
            "byteLength" : 1236,
            "byteOffset" : 7572
        },
        {
            "buffer" : 0,
            "byteLength" : 1236,
            "byteOffset" : 8808
        },
        {
            "buffer" : 0,
            "byteLength" : 824,
            "byteOffset" : 10044
        },
        {
            "buffer" : 0,
            "byteLength" : 1056,
            "byteOffset" : 10868
        },
        {
            "buffer" : 0,
            "byteLength" : 139200,
            "byteOffset" : 11924
        },
        {
            "buffer" : 0,
            "byteLength" : 139200,
            "byteOffset" : 151124
        },
        {
            "buffer" : 0,
            "byteLength" : 92800,
            "byteOffset" : 290324
        },
        {
            "buffer" : 0,
            "byteLength" : 108864,
            "byteOffset" : 383124
        },
        {
            "buffer" : 0,
            "byteLength" : 696,
            "byteOffset" : 491988
        },
        {
            "buffer" : 0,
            "byteLength" : 696,
            "byteOffset" : 492684
        },
        {
            "buffer" : 0,
            "byteLength" : 464,
            "byteOffset" : 493380
        },
        {
            "buffer" : 0,
            "byteLength" : 216,
            "byteOffset" : 493844
        },
        {
            "buffer" : 0,
            "byteLength" : 9600,
            "byteOffset" : 494060
        },
        {
            "buffer" : 0,
            "byteLength" : 9600,
            "byteOffset" : 503660
        },
        {
            "buffer" : 0,
            "byteLength" : 6400,
            "byteOffset" : 513260
        },
        {
            "buffer" : 0,
            "byteLength" : 2904,
            "byteOffset" : 519660
        },
        {
            "buffer" : 0,
            "byteLength" : 240,
            "byteOffset" : 522564
        },
        {
            "buffer" : 0,
            "byteLength" : 240,
            "byteOffset" : 522804
        },
        {
            "buffer" : 0,
            "byteLength" : 160,
            "byteOffset" : 523044
        },
        {
            "buffer" : 0,
            "byteLength" : 60,
            "byteOffset" : 523204
        },
        {
            "buffer" : 0,
            "byteLength" : 240,
            "byteOffset" : 523264
        },
        {
            "buffer" : 0,
            "byteLength" : 240,
            "byteOffset" : 523504
        },
        {
            "buffer" : 0,
            "byteLength" : 160,
            "byteOffset" : 523744
        },
        {
            "buffer" : 0,
            "byteLength" : 60,
            "byteOffset" : 523904
        },
        {
            "buffer" : 0,
            "byteLength" : 240,
            "byteOffset" : 523964
        },
        {
            "buffer" : 0,
            "byteLength" : 240,
            "byteOffset" : 524204
        },
        {
            "buffer" : 0,
            "byteLength" : 160,
            "byteOffset" : 524444
        },
        {
            "buffer" : 0,
            "byteLength" : 60,
            "byteOffset" : 524604
        }
    ],
    "buffers" : [
        {
            "byteLength" : 524664,
            "uri" : "coilBake.bin"
        }
    ]
}
