{
	"asset":{
		"generator":"Khronos glTF Blender I/O v3.6.27",
		"version":"2.0"
	},
	"extensionsUsed":[
		"KHR_materials_specular",
		"KHR_materials_ior"
	],
	"scene":0,
	"scenes":[
		{
			"name":"Scene",
			"nodes":[
				0,
				1
			]
		}
	],
	"nodes":[
		{
			"mesh":0,
			"name":"car",
			"rotation":[
				0.7071068286895752,
				0,
				0,
				0.7071068286895752
			],
			"scale":[
				0.46954146027565,
				0.1581723839044571,
				0.46954146027565
			],
			"translation":[
				0.022216664627194405,
				0,
				-0.011225694790482521
			]
		},
		{
			"mesh":1,
			"name":"tree",
			"scale":[
				0.9738045334815979,
				0.9738045334815979,
				0.9738045334815979
			]
		}
	],
	"materials":[
		{
			"doubleSided":true,
			"name":"Material.002",
			"pbrMetallicRoughness":{
				"baseColorFactor":[
					0.08001142740249634,
					0.08001142740249634,
					0.08001142740249634,
					1
				],
				"metallicFactor":0,
				"roughnessFactor":0.5
			}
		},
		{
			"doubleSided":true,
			"name":"Material",
			"pbrMetallicRoughness":{
				"baseColorFactor":[
					0.8000000715255737,
					0,
					0.5376943349838257,
					1
				],
				"metallicFactor":0,
				"roughnessFactor":0.5
			}
		},
		{
			"doubleSided":true,
			"name":"Material.001",
			"pbrMetallicRoughness":{
				"baseColorFactor":[
					0.007147182710468769,
					0.12224745750427246,
					0.8000000715255737,
					1
				],
				"metallicFactor":0,
				"roughnessFactor":0.5
			}
		},
		{
			"doubleSided":true,
			"name":"Material.003",
			"pbrMetallicRoughness":{
				"baseColorFactor":[
					0.8000000715255737,
					0.6639207601547241,
					0.05438810586929321,
					1
				],
				"metallicFactor":0,
				"roughnessFactor":0.5
			}
		},
		{
			"doubleSided":true,
			"name":"Material.004",
			"pbrMetallicRoughness":{
				"baseColorFactor":[
					0.8000000715255737,
					0,
					0.0033997688442468643,
					1
				],
				"metallicFactor":0,
				"roughnessFactor":0.5
			}
		},
		{
			"doubleSided":true,
			"extensions":{
				"KHR_materials_specular":{
					"specularColorFactor":[
						0,
						0,
						0
					]
				},
				"KHR_materials_ior":{
					"ior":1.4500000476837158
				}
			},
			"name":"Material.006",
			"pbrMetallicRoughness":{
				"baseColorFactor":[
					0.07618525624275208,
					0.1499597430229187,
					0.08021986484527588,
					1
				],
				"metallicFactor":0,
				"roughnessFactor":0.5
			}
		},
		{
			"doubleSided":true,
			"extensions":{
				"KHR_materials_specular":{
					"specularColorFactor":[
						0,
						0,
						0
					]
				},
				"KHR_materials_ior":{
					"ior":1.4500000476837158
				}
			},
			"name":"Material.005",
			"pbrMetallicRoughness":{
				"baseColorFactor":[
					0.4019775986671448,
					0.25818273425102234,
					0.0930590108036995,
					1
				],
				"metallicFactor":0,
				"roughnessFactor":0.5
			}
		},
		{
			"doubleSided":true,
			"extensions":{
				"KHR_materials_specular":{
					"specularColorFactor":[
						0,
						0,
						0
					]
				},
				"KHR_materials_ior":{
					"ior":1.4500000476837158
				}
			},
			"name":"Material.007",
			"pbrMetallicRoughness":{
				"baseColorFactor":[
					0.0409151092171669,
					0.0822826474905014,
					0.05780543386936188,
					1
				],
				"metallicFactor":0,
				"roughnessFactor":0.5
			}
		}
	],
	"meshes":[
		{
			"name":"Cylinder.004",
			"primitives":[
				{
					"attributes":{
						"POSITION":0,
						"NORMAL":1,
						"TEXCOORD_0":2
					},
					"indices":3,
					"material":0
				},
				{
					"attributes":{
						"POSITION":4,
						"NORMAL":5,
						"TEXCOORD_0":6
					},
					"indices":7,
					"material":1
				},
				{
					"attributes":{
						"POSITION":8,
						"NORMAL":9,
						"TEXCOORD_0":10
					},
					"indices":11,
					"material":2
				},
				{
					"attributes":{
						"POSITION":12,
						"NORMAL":13,
						"TEXCOORD_0":14
					},
					"indices":15,
					"material":3
				},
				{
					"attributes":{
						"POSITION":16,
						"NORMAL":17,
						"TEXCOORD_0":18
					},
					"indices":19,
					"material":4
				}
			]
		},
		{
			"name":"tree",
			"primitives":[
				{
					"attributes":{
						"POSITION":20,
						"NORMAL":21,
						"TEXCOORD_0":22
					},
					"indices":23,
					"material":5
				},
				{
					"attributes":{
						"POSITION":24,
						"NORMAL":25,
						"TEXCOORD_0":26
					},
					"indices":23,
					"material":6
				},
				{
					"attributes":{
						"POSITION":27,
						"NORMAL":28,
						"TEXCOORD_0":29
					},
					"indices":23,
					"material":7
				}
			]
		}
	],
	"accessors":[
		{
			"bufferView":0,
			"componentType":5126,
			"count":832,
			"max":[
				6.439263343811035,
				10.976137161254883,
				0.038060665130615234
			],
			"min":[
				-6.593521595001221,
				-10.761255264282227,
				-4.533066272735596
			],
			"type":"VEC3"
		},
		{
			"bufferView":1,
			"componentType":5126,
			"count":832,
			"type":"VEC3"
		},
		{
			"bufferView":2,
			"componentType":5126,
			"count":832,
			"type":"VEC2"
		},
		{
			"bufferView":3,
			"componentType":5123,
			"count":1560,
			"type":"SCALAR"
		},
		{
			"bufferView":4,
			"componentType":5126,
			"count":302,
			"max":[
				6.385725975036621,
				8.585748672485352,
				-0.9359979629516602
			],
			"min":[
				-6.522850036621094,
				-8.39512825012207,
				-7.06591796875
			],
			"type":"VEC3"
		},
		{
			"bufferView":5,
			"componentType":5126,
			"count":302,
			"type":"VEC3"
		},
		{
			"bufferView":6,
			"componentType":5126,
			"count":302,
			"type":"VEC2"
		},
		{
			"bufferView":7,
			"componentType":5123,
			"count":624,
			"type":"SCALAR"
		},
		{
			"bufferView":8,
			"componentType":5126,
			"count":24,
			"max":[
				2.808234691619873,
				8.234098434448242,
				-3.8516783714294434
			],
			"min":[
				-4.567342758178711,
				-8.117837905883789,
				-6.929040431976318
			],
			"type":"VEC3"
		},
		{
			"bufferView":9,
			"componentType":5126,
			"count":24,
			"type":"VEC3"
		},
		{
			"bufferView":10,
			"componentType":5126,
			"count":24,
			"type":"VEC2"
		},
		{
			"bufferView":11,
			"componentType":5123,
			"count":36,
			"type":"SCALAR"
		},
		{
			"bufferView":12,
			"componentType":5126,
			"count":48,
			"max":[
				6.439263343811035,
				8.118864059448242,
				-2.032036304473877
			],
			"min":[
				6.257472991943359,
				-7.773405075073242,
				-2.700601100921631
			],
			"type":"VEC3"
		},
		{
			"bufferView":13,
			"componentType":5126,
			"count":48,
			"type":"VEC3"
		},
		{
			"bufferView":14,
			"componentType":5126,
			"count":48,
			"type":"VEC2"
		},
		{
			"bufferView":15,
			"componentType":5123,
			"count":72,
			"type":"SCALAR"
		},
		{
			"bufferView":16,
			"componentType":5126,
			"count":48,
			"max":[
				-6.411731243133545,
				8.063467025756836,
				-2.6253085136413574
			],
			"min":[
				-6.593521595001221,
				-7.96051025390625,
				-3.034979820251465
			],
			"type":"VEC3"
		},
		{
			"bufferView":17,
			"componentType":5126,
			"count":48,
			"type":"VEC3"
		},
		{
			"bufferView":18,
			"componentType":5126,
			"count":48,
			"type":"VEC2"
		},
		{
			"bufferView":19,
			"componentType":5123,
			"count":72,
			"type":"SCALAR"
		},
		{
			"bufferView":20,
			"componentType":5126,
			"count":24,
			"max":[
				1,
				6.713133811950684,
				0.9999990463256836
			],
			"min":[
				-1,
				4.713133811950684,
				-1.0000009536743164
			],
			"type":"VEC3"
		},
		{
			"bufferView":21,
			"componentType":5126,
			"count":24,
			"type":"VEC3"
		},
		{
			"bufferView":22,
			"componentType":5126,
			"count":24,
			"type":"VEC2"
		},
		{
			"bufferView":23,
			"componentType":5123,
			"count":36,
			"type":"SCALAR"
		},
		{
			"bufferView":24,
			"componentType":5126,
			"count":24,
			"max":[
				0.31653475761413574,
				3.8973469734191895,
				0.31653428077697754
			],
			"min":[
				-0.31653475761413574,
				-4.76837158203125e-07,
				-0.31653523445129395
			],
			"type":"VEC3"
		},
		{
			"bufferView":25,
			"componentType":5126,
			"count":24,
			"type":"VEC3"
		},
		{
			"bufferView":26,
			"componentType":5126,
			"count":24,
			"type":"VEC2"
		},
		{
			"bufferView":27,
			"componentType":5126,
			"count":24,
			"max":[
				1.362112045288086,
				5.803472518920898,
				1.3621115684509277
			],
			"min":[
				-1.362112045288086,
				3.0792484283447266,
				-1.3621125221252441
			],
			"type":"VEC3"
		},
		{
			"bufferView":28,
			"componentType":5126,
			"count":24,
			"type":"VEC3"
		},
		{
			"bufferView":29,
			"componentType":5126,
			"count":24,
			"type":"VEC2"
		}
	],
	"bufferViews":[
		{
			"buffer":0,
			"byteLength":9984,
			"byteOffset":0,
			"target":34962
		},
		{
			"buffer":0,
			"byteLength":9984,
			"byteOffset":9984,
			"target":34962
		},
		{
			"buffer":0,
			"byteLength":6656,
			"byteOffset":19968,
			"target":34962
		},
		{
			"buffer":0,
			"byteLength":3120,
			"byteOffset":26624,
			"target":34963
		},
		{
			"buffer":0,
			"byteLength":3624,
			"byteOffset":29744,
			"target":34962
		},
		{
			"buffer":0,
			"byteLength":3624,
			"byteOffset":33368,
			"target":34962
		},
		{
			"buffer":0,
			"byteLength":2416,
			"byteOffset":36992,
			"target":34962
		},
		{
			"buffer":0,
			"byteLength":1248,
			"byteOffset":39408,
			"target":34963
		},
		{
			"buffer":0,
			"byteLength":288,
			"byteOffset":40656,
			"target":34962
		},
		{
			"buffer":0,
			"byteLength":288,
			"byteOffset":40944,
			"target":34962
		},
		{
			"buffer":0,
			"byteLength":192,
			"byteOffset":41232,
			"target":34962
		},
		{
			"buffer":0,
			"byteLength":72,
			"byteOffset":41424,
			"target":34963
		},
		{
			"buffer":0,
			"byteLength":576,
			"byteOffset":41496,
			"target":34962
		},
		{
			"buffer":0,
			"byteLength":576,
			"byteOffset":42072,
			"target":34962
		},
		{
			"buffer":0,
			"byteLength":384,
			"byteOffset":42648,
			"target":34962
		},
		{
			"buffer":0,
			"byteLength":144,
			"byteOffset":43032,
			"target":34963
		},
		{
			"buffer":0,
			"byteLength":576,
			"byteOffset":43176,
			"target":34962
		},
		{
			"buffer":0,
			"byteLength":576,
			"byteOffset":43752,
			"target":34962
		},
		{
			"buffer":0,
			"byteLength":384,
			"byteOffset":44328,
			"target":34962
		},
		{
			"buffer":0,
			"byteLength":144,
			"byteOffset":44712,
			"target":34963
		},
		{
			"buffer":0,
			"byteLength":288,
			"byteOffset":44856,
			"target":34962
		},
		{
			"buffer":0,
			"byteLength":288,
			"byteOffset":45144,
			"target":34962
		},
		{
			"buffer":0,
			"byteLength":192,
			"byteOffset":45432,
			"target":34962
		},
		{
			"buffer":0,
			"byteLength":72,
			"byteOffset":45624,
			"target":34963
		},
		{
			"buffer":0,
			"byteLength":288,
			"byteOffset":45696,
			"target":34962
		},
		{
			"buffer":0,
			"byteLength":288,
			"byteOffset":45984,
			"target":34962
		},
		{
			"buffer":0,
			"byteLength":192,
			"byteOffset":46272,
			"target":34962
		},
		{
			"buffer":0,
			"byteLength":288,
			"byteOffset":46464,
			"target":34962
		},
		{
			"buffer":0,
			"byteLength":288,
			"byteOffset":46752,
			"target":34962
		},
		{
			"buffer":0,
			"byteLength":192,
			"byteOffset":47040,
			"target":34962
		}
	],
	"buffers":[
		{
			"byteLength":47232,
			"uri":"models.bin"
		}
	]
}
